<svg width="47" height="44" viewBox="0 0 47 44" fill="none" xmlns="http://www.w3.org/2000/svg">
<path d="M44.0489 1.00012L26.3521 14.1293L29.6387 6.38338L44.0489 1.00012Z" fill="#E17726" stroke="#E17726" stroke-width="0.712817" stroke-linecap="round" stroke-linejoin="round"/>
<path d="M3.23828 1.00049L20.7741 14.2539L17.6485 6.38375L3.23828 1.00049Z" fill="#E27625" stroke="#E27625" stroke-width="0.712817" stroke-linecap="round" stroke-linejoin="round"/>
<path d="M37.687 31.4347L32.9792 38.6485L43.0527 41.4189L45.9316 31.594L37.687 31.4347Z" fill="#E27625" stroke="#E27625" stroke-width="0.712817" stroke-linecap="round" stroke-linejoin="round"/>
<path d="M1.37256 31.5935L4.23395 41.4184L14.3074 38.6481L9.61721 31.4342L1.37256 31.5935Z" fill="#E27625" stroke="#E27625" stroke-width="0.712817" stroke-linecap="round" stroke-linejoin="round"/>
<path d="M13.7557 19.2456L10.9487 23.4928L20.9342 23.9373L20.5964 13.1871L13.7557 19.2456Z" fill="#E27625" stroke="#E27625" stroke-width="0.712817" stroke-linecap="round" stroke-linejoin="round"/>
<path d="M33.5305 19.2456L26.5831 13.0629L26.3521 23.9373L36.3375 23.4928L33.5305 19.2456Z" fill="#E27625" stroke="#E27625" stroke-width="0.712817" stroke-linecap="round" stroke-linejoin="round"/>
<path d="M14.3069 38.6489L20.3313 35.7155L15.1418 31.6653L14.3069 38.6489Z" fill="#E27625" stroke="#E27625" stroke-width="0.712817" stroke-linecap="round" stroke-linejoin="round"/>
<path d="M26.9558 35.7153L32.9802 38.6488L32.1454 31.6652L26.9558 35.7153Z" fill="#E27625" stroke="#E27625" stroke-width="0.712817" stroke-linecap="round" stroke-linejoin="round"/>
<path d="M32.9805 38.6482L26.9561 35.7147L27.4356 39.6423L27.3831 41.2946L32.9805 38.6482Z" fill="#D5BFB2" stroke="#D5BFB2" stroke-width="0.712817" stroke-linecap="round" stroke-linejoin="round"/>
<path d="M14.3069 38.648L19.9042 41.2944L19.8692 39.6422L20.3313 35.7146L14.3069 38.648Z" fill="#D5BFB2" stroke="#D5BFB2" stroke-width="0.712817" stroke-linecap="round" stroke-linejoin="round"/>
<path d="M20.011 29.0707L15 27.597L18.5355 25.9797L20.011 29.0707Z" fill="#233447" stroke="#233447" stroke-width="0.712817" stroke-linecap="round" stroke-linejoin="round"/>
<path d="M27.2761 29.0703L28.7516 25.9793L32.3046 27.5966L27.2761 29.0703Z" fill="#233447" stroke="#233447" stroke-width="0.712817" stroke-linecap="round" stroke-linejoin="round"/>
<path d="M14.3077 38.6489L15.1775 31.4343L9.61694 31.5935L14.3077 38.6489Z" fill="#CC6228" stroke="#CC6228" stroke-width="0.712817" stroke-linecap="round" stroke-linejoin="round"/>
<path d="M32.1096 31.4342L32.9795 38.6488L37.6877 31.5935L32.1096 31.4342Z" fill="#CC6228" stroke="#CC6228" stroke-width="0.712817" stroke-linecap="round" stroke-linejoin="round"/>
<path d="M36.3378 23.4929L26.3523 23.9374L27.2763 29.0702L28.7515 25.9797L32.304 27.5967L36.3378 23.4929Z" fill="#CC6228" stroke="#CC6228" stroke-width="0.712817" stroke-linecap="round" stroke-linejoin="round"/>
<path d="M15 27.5965L18.535 25.9795L20.0102 29.07L20.9342 23.9372L10.9487 23.4927L15 27.5965Z" fill="#CC6228" stroke="#CC6228" stroke-width="0.712817" stroke-linecap="round" stroke-linejoin="round"/>
<path d="M10.9487 23.4927L15.1417 31.6652L15 27.5965L10.9487 23.4927Z" fill="#E27525" stroke="#E27525" stroke-width="0.712817" stroke-linecap="round" stroke-linejoin="round"/>
<path d="M32.3038 27.5965L32.1445 31.6652L36.3375 23.4927L32.3038 27.5965Z" fill="#E27525" stroke="#E27525" stroke-width="0.712817" stroke-linecap="round" stroke-linejoin="round"/>
<path d="M20.9343 23.9373L20.0103 29.07L21.1827 35.1285L21.4312 27.152L20.9343 23.9373Z" fill="#E27525" stroke="#E27525" stroke-width="0.712817" stroke-linecap="round" stroke-linejoin="round"/>
<path d="M26.3521 23.9371L25.8726 27.1343L26.1036 35.1283L27.2761 29.0698L26.3521 23.9371Z" fill="#E27525" stroke="#E27525" stroke-width="0.712817" stroke-linecap="round" stroke-linejoin="round"/>
<path d="M27.276 29.0701L26.1035 35.1285L26.9558 35.7148L32.1445 31.6653L32.3037 27.5966L27.276 29.0701Z" fill="#F5841F" stroke="#F5841F" stroke-width="0.712817" stroke-linecap="round" stroke-linejoin="round"/>
<path d="M15 27.5966L15.1417 31.6654L20.3305 35.7148L21.1827 35.1286L20.0102 29.0701L15 27.5966Z" fill="#F5841F" stroke="#F5841F" stroke-width="0.712817" stroke-linecap="round" stroke-linejoin="round"/>
<path d="M27.3835 41.2938L27.436 39.6417L26.9933 39.2514H20.2939L19.8687 39.6417L19.9037 41.2938L14.3069 38.6476L16.2617 40.2455L20.2414 43.0001H27.0458L31.0254 40.2455L32.9803 38.6476L27.3835 41.2938Z" fill="#C0AC9D" stroke="#C0AC9D" stroke-width="0.712817" stroke-linecap="round" stroke-linejoin="round"/>
<path d="M26.9559 35.7149L26.1036 35.1287H21.1827L20.3304 35.7149L19.8684 39.6419L20.2937 39.2516H26.9926L27.4354 39.6419L26.9559 35.7149Z" fill="#161616" stroke="#161616" stroke-width="0.712817" stroke-linecap="round" stroke-linejoin="round"/>
<path d="M44.7944 14.9831L46.2873 7.73421L44.0489 0.999878L26.9558 13.6862L33.5309 19.2463L42.8221 21.9659L44.8662 19.5665L43.9771 18.9278L45.3982 17.6292L44.3149 16.7769L45.736 15.6936L44.7944 14.9831Z" fill="#763E1A" stroke="#763E1A" stroke-width="0.712817" stroke-linecap="round" stroke-linejoin="round"/>
<path d="M1 7.73457L2.51032 14.9834L1.55128 15.694L2.97235 16.7773L1.88904 17.6296L3.31011 18.9281L2.42107 19.5669L4.46517 21.9663L13.7564 19.2466L20.3314 13.6866L3.23836 1.00024L1 7.73457Z" fill="#763E1A" stroke="#763E1A" stroke-width="0.712817" stroke-linecap="round" stroke-linejoin="round"/>
<path d="M42.8218 21.9654L33.5306 19.2458L36.3377 23.4932L32.1445 31.6661L37.687 31.5944H45.9317L42.8218 21.9654Z" fill="#F5841F" stroke="#F5841F" stroke-width="0.712817" stroke-linecap="round" stroke-linejoin="round"/>
<path d="M13.7564 19.2458L4.4652 21.9655L1.3728 31.5944H9.61745L15.1425 31.6662L10.9493 23.4933L13.7564 19.2458Z" fill="#F5841F" stroke="#F5841F" stroke-width="0.712817" stroke-linecap="round" stroke-linejoin="round"/>
<path d="M26.3519 23.9374L26.9557 13.686L29.6384 6.38324H17.6475L20.3302 13.686L20.9339 23.9374L21.1649 27.1697L21.1824 35.1286H26.1034L26.1209 27.1697L26.3519 23.9374Z" fill="#F5841F" stroke="#F5841F" stroke-width="0.712817" stroke-linecap="round" stroke-linejoin="round"/>
</svg>
